<svg xmlns="http://www.w3.org/2000/svg" width="33" height="33" viewBox="0 0 33 33"><defs><style>.a{fill:rgba(4,89,246,0.05);}.b{fill:#0459f6;}</style></defs><g transform="translate(-123 -7509)"><circle class="a" cx="16.5" cy="16.5" r="16.5" transform="translate(123 7509)"/><g transform="translate(140.923 7395.979)"><path class="b" d="M29.957,0,27.993,0A3.449,3.449,0,0,0,24.36,3.727V5.446H22.386a.309.309,0,0,0-.309.309v2.49a.309.309,0,0,0,.309.309H24.36v6.283a.309.309,0,0,0,.309.309h2.576a.309.309,0,0,0,.309-.309V8.553h2.309a.309.309,0,0,0,.309-.309V5.755a.309.309,0,0,0-.309-.309h-2.31V3.989c0-.7.167-1.056,1.079-1.056h1.323a.309.309,0,0,0,.309-.309V.312A.309.309,0,0,0,29.957,0Z" transform="translate(-28 122)"/></g></g></svg>