<svg xmlns="http://www.w3.org/2000/svg" width="33" height="33" viewBox="0 0 33 33"><defs><style>.a{fill:rgba(4,89,246,0.05);}.b{fill:#0459f6;}</style></defs><g transform="translate(-176 -7509)"><circle class="a" cx="16.5" cy="16.5" r="16.5" transform="translate(176 7509)"/><g transform="translate(185 7517.979)"><path class="b" d="M10.328,0H4.694A4.7,4.7,0,0,0,0,4.694v5.633a4.7,4.7,0,0,0,4.694,4.694h5.633a4.7,4.7,0,0,0,4.694-4.694V4.694A4.7,4.7,0,0,0,10.328,0Zm3.286,10.328a3.29,3.29,0,0,1-3.286,3.286H4.694a3.29,3.29,0,0,1-3.286-3.286V4.694A3.29,3.29,0,0,1,4.694,1.408h5.633a3.29,3.29,0,0,1,3.286,3.286Z"/><g transform="translate(3.756 3.756)"><path class="b" d="M131.756,128a3.756,3.756,0,1,0,3.756,3.756A3.756,3.756,0,0,0,131.756,128Zm0,6.1a2.347,2.347,0,1,1,2.347-2.347A2.35,2.35,0,0,1,131.756,134.1Z" transform="translate(-128 -128)"/></g><g transform="translate(11.048 2.973)"><circle class="b" cx="0.5" cy="0.5" r="0.5"/></g></g></g></svg>