<svg xmlns="http://www.w3.org/2000/svg" width="14.69" height="14.69" viewBox="0 0 14.69 14.69">
    <defs>
        <style>
            .cls-1{fill:#7a7a7a}
        </style>
    </defs>
    <g id="telephone" transform="translate(-.006)">
        <g id="Grupo_153" data-name="Grupo 153" transform="translate(.006)">
            <path id="Caminho_919" d="M11.162 54.436a1.028 1.028 0 0 0-1.554 0c-.363.36-.727.721-1.084 1.087a.214.214 0 0 1-.3.055c-.235-.128-.486-.232-.711-.373A11.273 11.273 0 0 1 4.8 52.732a6.438 6.438 0 0 1-.974-1.56.224.224 0 0 1 .055-.287c.363-.351.718-.711 1.075-1.072a1.032 1.032 0 0 0 0-1.591c-.284-.287-.568-.568-.852-.855s-.583-.589-.879-.879a1.035 1.035 0 0 0-1.554 0c-.366.36-.718.73-1.09 1.084a1.769 1.769 0 0 0-.556 1.194 5.058 5.058 0 0 0 .391 2.177 13.23 13.23 0 0 0 2.348 3.912 14.531 14.531 0 0 0 4.812 3.765 6.96 6.96 0 0 0 2.666.776 1.954 1.954 0 0 0 1.676-.638c.311-.348.663-.666.992-1a1.039 1.039 0 0 0 .006-1.582q-.878-.876-1.754-1.74z" class="cls-1" data-name="Caminho 919" transform="translate(-.006 -44.713)"/>
            <path id="Caminho_920" d="M241.2 100.391l1.14-.195a5.115 5.115 0 0 0-4.327-4.2l-.161 1.146a3.953 3.953 0 0 1 3.348 3.246z" class="cls-1" data-name="Caminho 920" transform="translate(-230.615 -93.078)"/>
            <path id="Caminho_921" d="M247.732 2.4a8.4 8.4 0 0 0-4.817-2.4l-.161 1.146a7.332 7.332 0 0 1 6.2 6.013l1.14-.195a8.464 8.464 0 0 0-2.362-4.564z" class="cls-1" data-name="Caminho 921" transform="translate(-235.408)"/>
        </g>
    </g>
</svg>
