<svg xmlns="http://www.w3.org/2000/svg" width="33" height="33" viewBox="0 0 33 33"><defs><style>.a{fill:#0459f6;}.b{fill:rgba(4,89,246,0.05);}</style></defs><g transform="translate(-229 -7509)"><g transform="translate(238 7517.979)"><path class="a" d="M14.689,7.156a7.224,7.224,0,0,1-10.7,6.266L0,14.689l1.3-3.84A7.083,7.083,0,0,1,.267,7.155a7.211,7.211,0,0,1,14.422,0ZM7.477,1.141A6.046,6.046,0,0,0,1.415,7.157,5.951,5.951,0,0,0,2.57,10.683l-.757,2.234,2.329-.74a6.069,6.069,0,0,0,9.4-5.021A6.045,6.045,0,0,0,7.477,1.141ZM11.119,8.8c-.045-.072-.163-.116-.339-.2s-1.046-.512-1.208-.57-.281-.089-.4.087-.456.57-.559.688-.206.132-.383.046A4.873,4.873,0,0,1,6.81,7.98a5.277,5.277,0,0,1-.983-1.215c-.1-.175-.011-.27.077-.357s.177-.205.265-.308a1.169,1.169,0,0,0,.177-.292A.327.327,0,0,0,6.331,5.5c-.044-.088-.4-.95-.545-1.3s-.294-.293-.4-.293-.221-.014-.339-.014a.647.647,0,0,0-.471.218,1.963,1.963,0,0,0-.618,1.463,3.391,3.391,0,0,0,.721,1.814A7.239,7.239,0,0,0,7.7,10.035c1.8.7,1.8.467,2.121.438a1.783,1.783,0,0,0,1.193-.833A1.457,1.457,0,0,0,11.119,8.8Z"/></g><circle class="b" cx="16.5" cy="16.5" r="16.5" transform="translate(229 7509)"/></g></svg>