<svg xmlns="http://www.w3.org/2000/svg" id="Blueberry_-_Logo_completa" width="220.419" height="43.947" data-name="Blueberry - Logo completa" viewBox="0 0 220.419 43.947">
    <defs>
        <style>
            .cls-1{fill:#1bcb6b}.cls-2{fill:#18b15e}.cls-3,.cls-5{fill:#0459f6}.cls-4{fill:#0748bf}.cls-5{font-size:20px;font-family:Montserrat-Bold,Montserrat;font-weight:700}.cls-6{fill:#232f3e}
        </style>
    </defs>
    <g id="Layer_x0020_1">
        <g id="_1879542984512">
            <path id="Caminho_687" d="M287.046 785.4c-9.67-4.344-11.807-11.717-9.219-21 6.922 7.012 13.873 5.808 16.923 17.234l-7.7 3.762z" class="cls-1" data-name="Caminho 687" transform="translate(-249.049 -753.125)"/>
            <path id="Caminho_688" d="M287.033 785.4c-9.68-4.344-11.807-11.717-9.219-21-.4 11.155 2.789 13.572 6.27 15.829l2.949 5.166z" class="cls-2" data-name="Caminho 688" transform="translate(-249.036 -753.125)"/>
            <path id="Caminho_689" d="M25.678 731.774C21 723 9.939 725.635.329 720.9c-2.107 11.536 6.791 27.636 19.581 30.054l5.768-19.18z" class="cls-2" data-name="Caminho 689" transform="translate(-.02 -713.988)"/>
            <path id="Caminho_690" d="M28.145 733.174C23.471 724.4 12.416 727.035 2.8 722.3c-1.655 9.048 12.318 30.415 24.256 25.6 3.611-1.465-2.1-15.318 1.093-14.726z" class="cls-1" data-name="Caminho 690" transform="translate(-2.397 -715.248)"/>
            <path id="Caminho_691" d="M263.961 673.748c4.263-9.71.883-16.612-7.263-21.748-.431 9.851-6.38 13.622-.983 24.135l8.246-2.387z" class="cls-1" data-name="Caminho 691" transform="translate(-228.041 -652)"/>
            <path id="Caminho_692" d="M292.963 673.748c4.263-9.71.883-16.612-7.263-21.748 7.794 8 7.052 11.937 5.979 15.94l1.284 5.808z" class="cls-2" data-name="Caminho 692" transform="translate(-257.042 -652)"/>
            <path id="Caminho_693" d="M176.008 781.2a15.493 15.493 0 1 1-15.508 15.478 15.5 15.5 0 0 1 15.508-15.478z" class="cls-3" data-name="Caminho 693" transform="translate(-144.402 -768.24)"/>
            <path id="Caminho_694" d="M261.98 887.2a15.5 15.5 0 0 1-22.28 18.387c12.7 4.354 24.1-4.514 22.28-18.387z" class="cls-4" data-name="Caminho 694" transform="translate(-215.657 -863.606)"/>
        </g>
    </g>
    <text id="Blueberry_Code" class="cls-5" data-name="Blueberry Code" transform="translate(56.419 31.506)">
        <tspan x="0" y="0">Blueberry </tspan><tspan y="0" class="cls-6">Code</tspan>
    </text>
</svg>
