<svg xmlns="http://www.w3.org/2000/svg" width="315.636" height="32.432" viewBox="0 0 315.636 32.432"><defs><style>.a{fill:#1bcb6b;}.b{fill:#18b15e;}.c,.e{fill:#0459f6;}.d{fill:#0748bf;}.e{font-size:13px;font-family:Montserrat-Bold, Montserrat;font-weight:700;}.f{fill:#fff;}</style></defs><g transform="translate(-0.02 -652)"><g transform="translate(0.02 652)"><g transform="translate(0)"><path class="a" d="M284.365,779.894c-7.136-3.206-8.713-8.647-6.8-15.494,5.108,5.175,10.238,4.286,12.489,12.718l-5.685,2.776Z" transform="translate(-256.324 -756.079)"/><path class="b" d="M284.352,779.894c-7.144-3.206-8.713-8.647-6.8-15.494-.3,8.232,2.058,10.016,4.627,11.682l2.176,3.813Z" transform="translate(-256.311 -756.079)"/><path class="b" d="M18.955,728.925C15.5,722.447,7.34,724.394.248,720.9c-1.555,8.513,5.012,20.395,14.45,22.179l4.257-14.154Z" transform="translate(-0.02 -715.799)"/><path class="a" d="M21.468,730.325c-3.45-6.478-11.608-4.531-18.707-8.025-1.221,6.677,9.091,22.445,17.9,18.892,2.665-1.081-1.547-11.3.807-10.867Z" transform="translate(-2.466 -717.096)"/><path class="a" d="M261.211,668.049c3.146-7.166.651-12.259-5.36-16.049-.318,7.269-4.708,10.053-.725,17.811l6.085-1.762Z" transform="translate(-234.702 -652)"/><path class="b" d="M291.06,668.049c3.146-7.166.651-12.259-5.36-16.049,5.752,5.907,5.2,8.809,4.412,11.763l.947,4.286Z" transform="translate(-264.552 -652)"/><path class="c" d="M171.945,781.2A11.434,11.434,0,1,1,160.5,792.623,11.439,11.439,0,0,1,171.945,781.2Z" transform="translate(-148.62 -771.636)"/><path class="d" d="M256.142,887.2A11.436,11.436,0,0,1,239.7,900.769c9.372,3.213,17.782-3.331,16.442-13.569Z" transform="translate(-221.957 -869.789)"/></g></g><text class="e" transform="translate(41.655 674.229)"><tspan x="0" y="0">Blueberry </tspan><tspan class="f" y="0">Code - Codificando suas ideias.</tspan></text></g></svg>