<svg xmlns="http://www.w3.org/2000/svg" xmlns:xlink="http://www.w3.org/1999/xlink" width="328.5" height="195.954" viewBox="0 0 328.5 195.954"><defs><style>.a,.j{fill:#0459f6;}.a,.e,.r{opacity:0.1;}.b{opacity:0.7;}.c{fill:url(#a);}.d{fill:#bdbdbd;}.f{fill:#535461;}.g{opacity:0.5;}.h{fill:url(#b);}.i{fill:#fff;}.k{fill:#e0e0e0;}.l,.m,.o,.q{fill:none;stroke-miterlimit:10;}.l{stroke:#0459f6;stroke-width:2px;}.m{stroke:#fff;}.n{fill:url(#c);}.o,.q{stroke:#535461;}.o{stroke-width:3px;opacity:0.6;}.p{fill:#4db6ac;}.q{opacity:0.3;}.s{fill:url(#d);}.t{fill:#3ad29f;}.u{fill:#4d8af0;}.v{fill:#f55f44;}</style><linearGradient id="a" x1="0.712" y1="-0.35" x2="0.712" y2="0.65" gradientUnits="objectBoundingBox"><stop offset="0" stop-color="gray" stop-opacity="0.251"/><stop offset="0.54" stop-color="gray" stop-opacity="0.122"/><stop offset="1" stop-color="gray" stop-opacity="0.102"/></linearGradient><linearGradient id="b" x1="0.5" y1="0.927" x2="0.5" y2="1.927" xlink:href="#a"/><linearGradient id="c" x1="0.668" y1="-0.664" x2="1.668" y2="-0.664" xlink:href="#a"/><linearGradient id="d" x1="1.167" y1="-2" x2="2.167" y2="-2" xlink:href="#a"/></defs><path class="a" d="M419.027,26.029A62.289,62.289,0,0,0,406.955,9.77L239.5,8.375,377.371-7.995A90.838,90.838,0,0,0,349.4-12.686C336.125-21.747,319.066-27.2,300.458-27.2a87.948,87.948,0,0,0-44.72,11.829,89.732,89.732,0,0,0-35.844-7.3c-37.207,0-68.21,21.785-75.166,50.677Z" transform="translate(-108.413 27.195)"/><path class="a" d="M384.726,141.238a53.053,53.053,0,0,0-5.219-22.868L89.284,144.133a56.473,56.473,0,0,0-6.8,14.517l89.874,11.326-91.923,8.259c2.766,32.7,35.931,58.532,76.445,58.532,20.393,0,38.922-6.546,52.653-17.218,13.774,10.874,32.473,17.555,53.095,17.555,30.583,0,56.981-14.722,69.273-36.009,24.661-6.617,43.818-23.234,50.375-44.017l-113.657-14.9H384.726Z" transform="translate(-68.226 -63.792)"/><g class="b" transform="translate(72.947 26.199)"><path class="c" d="M392.472,0H221.235a5.536,5.536,0,0,0-5.515,5.553V123.407a5.536,5.536,0,0,0,5.515,5.553h58.894V149.3h-2.685a2.806,2.806,0,0,0-2.8,2.817h0V156.2h5.482v2.414h53.449V156.2h5.482V152.12a2.807,2.807,0,0,0-2.8-2.817h-2.526v-.176h-.172V128.96h58.907a5.536,5.536,0,0,0,5.515-5.553V5.553A5.536,5.536,0,0,0,392.472,0Z" transform="translate(-215.72)"/></g><rect class="d" width="52.753" height="31.111" transform="translate(137.874 151.656)"/><g class="e" transform="translate(137.705 150.303)"><path d="M408.427,371.4h50.781c.612-2.661,1.1-4.4,1.1-4.4H407.22S407.764,368.728,408.427,371.4Z" transform="translate(-407.22 -367)"/></g><path class="f" d="M225.164,3H394.176a5.444,5.444,0,0,1,5.444,5.444V112.563H219.72V8.444A5.444,5.444,0,0,1,225.164,3Z" transform="translate(-145.42 24.213)"/><path class="d" d="M394.176,343.908H225.164a5.444,5.444,0,0,1-5.444-5.444V327h179.9v11.464A5.444,5.444,0,0,1,394.176,343.908Z" transform="translate(-145.42 -190.223)"/><circle class="f" cx="3.043" cy="3.043" r="3.043" transform="translate(161.207 142.187)"/><path class="d" d="M394.483,436h58.048a2.763,2.763,0,0,1,2.763,2.763v4H391.72v-4A2.763,2.763,0,0,1,394.483,436Z" transform="translate(-259.257 -262.364)"/><g class="g" transform="translate(108.454 50.249)"><rect class="h" width="111.592" height="63.493" rx="4.5"/></g><rect class="i" width="108.731" height="62.208" rx="4.5" transform="translate(109.884 50.715)"/><g class="g" transform="translate(140.173 59.646)"><rect class="j" width="11.984" height="10.787" rx="4.5" transform="translate(0 0)"/></g><rect class="k" width="32.358" height="1.197" rx="0.599" transform="translate(155.752 59.646)"/><rect class="k" width="26.897" height="1.197" rx="0.599" transform="translate(155.752 63.244)"/><g class="g" transform="translate(140.173 76.426)"><rect class="j" width="11.984" height="10.787" rx="4.5"/></g><path class="k" d="M461.189,148.53H492.35a.6.6,0,0,1,.6.6h0a.6.6,0,0,1-.6.6H461.189a.6.6,0,0,1-.6-.6h0A.6.6,0,0,1,461.189,148.53Z" transform="translate(-304.838 -72.104)"/><path class="k" d="M461.189,159.16H492.35a.6.6,0,0,1,.6.6h0a.6.6,0,0,1-.6.6H461.189a.6.6,0,0,1-.6-.6h0A.6.6,0,0,1,461.189,159.16Z" transform="translate(-304.838 -79.14)"/><g class="g" transform="translate(140.173 93.205)"><rect class="j" width="11.984" height="10.787" rx="4.5"/></g><path class="k" d="M461.189,198.15H492.35a.6.6,0,0,1,.6.6h0a.6.6,0,0,1-.6.6H461.189a.6.6,0,0,1-.6-.6h0A.6.6,0,0,1,461.189,198.15Z" transform="translate(-304.838 -104.945)"/><rect class="k" width="32.575" height="1.197" rx="0.599" transform="translate(155.752 96.8)"/><line class="l" y1="7.439" transform="translate(164.25 32.962)"/><line class="l" y1="9.763" transform="translate(164.25 43.151)"/><circle class="j" cx="1.353" cy="1.353" r="1.353" transform="translate(162.897 51.561)"/><circle class="m" cx="1.353" cy="1.353" r="1.353" transform="translate(162.897 40.402)"/><line class="l" y1="7.439" transform="translate(164.25 32.962)"/><line class="l" y1="9.763" transform="translate(164.25 43.151)"/><circle class="j" cx="1.353" cy="1.353" r="1.353" transform="translate(162.897 51.561)"/><circle class="m" cx="1.353" cy="1.353" r="1.353" transform="translate(162.897 40.402)"/><line class="l" y2="10.483" transform="translate(164.25 120.545)"/><line class="l" y2="9.763" transform="translate(164.25 111.077)"/><circle class="j" cx="1.353" cy="1.353" r="1.353" transform="translate(162.897 109.724)"/><line class="l" x1="10.652" transform="translate(92.73 83.179)"/><line class="l" x1="9.763" transform="translate(102.918 83.179)"/><circle class="j" cx="1.353" cy="1.353" r="1.353" transform="translate(111.328 81.826)"/><g class="e" transform="translate(138.043 173.467)"><rect width="52.753" height="1.014"/></g><g class="b" transform="translate(5.993 85.55)"><path class="n" d="M72.327,240.286H47.844l.338-2.753c6.919-6.212,11.393-22.761,11.393-22.761a2.294,2.294,0,0,0-.294.061,17.19,17.19,0,0,0-8.965,4.491L51.175,212c12.782-2.753,17.851-19.66,17.851-19.66-8.156,1.809-13.242,4.609-16.4,7.267l1.258-10.76c8.643,2.966,17.584-12.789,17.584-12.789l-.338-.071.169-.108-.257.091c-9.553-2.059-14.659,3.4-16.316,5.671l.125-1.055q-.379,1.014-.737,1.988h0v.027q-1.014,2.749-1.856,5.431h0q-.734,2.289-1.373,4.531v-.02a13.593,13.593,0,0,0-10.544-12.157s1.065,20.989,9.107,17.554h0c-.744,3.043-1.353,5.972-1.88,8.816h0q-.5,2.776-.879,5.411l-.047.054.047-.041-.02.139h0q-.338,2.391-.575,4.66c.156-2.915-.375-11.335-10.3-19.248,0,0-13.188,23.177,9.3,27.729l.149.129-.034-.1.2.044.091-1.19a124.882,124.882,0,0,0,.078,14.913h0c.024.338.047.676.071,1H20.89c-9.448,19.542,5.248,30.252,5.248,30.252H66.717C82.475,250.634,72.327,240.286,72.327,240.286Zm-26.376-22.21Z" transform="translate(-17.722 -175.513)"/></g><path class="o" d="M99.883,263.25S93.458,235.183,107.66,199" transform="translate(-65.147 -105.508)"/><path class="j" d="M22.729,364H72.438s9.807,12.512-5.411,31.111H27.8S13.6,382.261,22.729,364Z" transform="translate(-13.017 -214.712)"/><path class="p" d="M120.043,191.575s4.94-8.792,16.776-6.087c0,0-9.783,16.658-18.6,11.2Z" transform="translate(-78.243 -96.223)"/><path class="p" d="M94.409,209.859A12.764,12.764,0,0,0,84.22,198.5s1.014,19.613,8.792,16.4Z" transform="translate(-55.74 -105.177)"/><path class="p" d="M103.162,244.979s1.809-9.421,20.746-13.479c0,0-6.039,19.485-21.618,18.7Z" transform="translate(-67.7 -127.018)"/><path class="p" d="M73.806,265.481S75.8,255.63,63.963,246.5c0,0-12.85,21.869,9.293,25.981Z" transform="translate(-39.879 -136.945)"/><path class="p" d="M99.215,310.127s-1.373-13.922,13.506-16.627c0,0-5.434,19.441-13.526,22.907Z" transform="translate(-65.642 -168.052)"/><path class="q" d="M118.72,197.5s12.85-9.807,18.261-11.5" transform="translate(-78.574 -96.904)"/><path class="q" d="M102.22,250.1s15.555-16.57,21.642-18.6" transform="translate(-67.654 -127.018)"/><path class="q" d="M84.22,198.5s9.468,12.85,8.792,16.232" transform="translate(-55.74 -105.177)"/><path class="q" d="M71.22,246.5s5.072,22.995,9.13,26.038" transform="translate(-47.136 -136.945)"/><path class="q" d="M99.22,316.495s8.116-22.318,13.526-22.995" transform="translate(-65.668 -168.052)"/><g class="e" transform="translate(9.374 149.288)"><path d="M77.767,364H28.058c-.112.227-.22.453-.338.676H76.077s9.566,12.211-4.869,30.434h1.15C87.574,376.512,77.767,364,77.767,364Z" transform="translate(-27.72 -364)"/></g><rect class="k" width="328.5" height="11.136" transform="translate(0 180.264)"/><rect class="k" width="300.659" height="4.555" transform="translate(13.919 191.399)"/><rect class="r" width="300.659" height="1.518" transform="translate(13.919 191.399)"/><line class="l" x2="2.029" transform="translate(233.403 83.179)"/><line class="l" x2="15.177" transform="translate(215.481 83.179)"/><circle class="j" cx="1.353" cy="1.353" r="1.353" transform="translate(214.128 81.826)"/><circle class="m" cx="1.353" cy="1.353" r="1.353" transform="translate(230.698 81.826)"/><g class="b" transform="translate(276.857 121.745)"><path class="s" d="M850.507,337.443l.034-.051q.1-.162.206-.338l.037-.064q.1-.166.186-.338l.03-.058c.068-.132.132-.264.189-.4h0a8.065,8.065,0,0,0,.318-.849l.034-.112c.031-.1.061-.21.088-.315l.034-.149q.034-.142.061-.287a.915.915,0,0,1,.031-.162c.01-.054.03-.189.044-.287a.733.733,0,0,1,.021-.166,1.8,1.8,0,0,0,.027-.311V305.021h-4.683V291.332h-5.749v13.689h-3.963V285.36H831.7v19.661h-2.161V282.55h-5.749v22.471H818.72v27.932a8.357,8.357,0,0,0,8.454,8.251h16.232a8.517,8.517,0,0,0,6.844-3.4h0Q850.375,337.623,850.507,337.443Z" transform="translate(-818.72 -282.55)"/></g><rect class="f" width="5.411" height="33.816" transform="translate(282.605 134.748)"/><rect class="t" width="5.411" height="11.159" transform="translate(282.605 123.588)"/><rect class="f" width="5.411" height="33.816" transform="translate(290.045 137.453)"/><rect class="u" width="5.411" height="11.159" transform="translate(290.045 126.294)"/><rect class="f" width="5.411" height="33.816" transform="translate(299.175 143.202)"/><rect class="v" width="5.411" height="11.159" transform="translate(299.175 132.042)"/><path class="j" d="M821.72,352h31.111v26.884a7.947,7.947,0,0,1-7.947,7.947H829.667a7.947,7.947,0,0,1-7.947-7.947V352Z" transform="translate(-543.849 -206.77)"/><g class="e" transform="translate(277.871 145.231)"><path d="M821.72,352v1.353h29.758v26.884a7.91,7.91,0,0,1-1.691,4.9,7.93,7.93,0,0,0,3.043-6.253V352Z" transform="translate(-821.72 -352)"/></g></svg>