<?xml version="1.0" encoding="UTF-8"?>
<!DOCTYPE svg PUBLIC "-//W3C//DTD SVG 1.0//EN" "http://www.w3.org/TR/2001/REC-SVG-20010904/DTD/svg10.dtd">
<!-- Creator: CorelDRAW 2019 (64-Bit) -->
<svg xmlns="http://www.w3.org/2000/svg" xml:space="preserve" width="84.6666mm" height="79.6658mm" version="1.0" style="shape-rendering:geometricPrecision; text-rendering:geometricPrecision; image-rendering:optimizeQuality; fill-rule:evenodd; clip-rule:evenodd"
viewBox="0 0 6426.58 6046.99"
 xmlns:xlink="http://www.w3.org/1999/xlink"
 xmlns:xodm="http://www.corel.com/coreldraw/odm/2003">
 <defs>
  <style type="text/css">
   <![CDATA[
    .fil7 {fill:#0459F6}
    .fil5 {fill:#0748BF}
    .fil4 {fill:#1575CE}
    .fil1 {fill:#18B15E}
    .fil2 {fill:#1BCB6B}
    .fil3 {fill:#0459F6;fill-rule:nonzero}
    .fil6 {fill:#0459F6;fill-rule:nonzero}
    .fil0 {fill:#D2D3D5;fill-rule:nonzero}
   ]]>
  </style>
 </defs>
 <g id="Layer_x0020_1">
  <metadata id="CorelCorpID_0Corel-Layer"/>
  <g id="_2054324491536">
   <path class="fil0" d="M2512.41 5621.1c0,234.92 -190.23,425.15 -425.14,425.15 -234.64,0 -424.87,-190.23 -424.87,-425.15 0,-234.91 190.23,-425.16 424.87,-425.16 234.91,0 425.14,190.25 425.14,425.16z"/>
   <path class="fil0" d="M4418.71 5621.1c0,234.92 -190.25,425.15 -425.16,425.15 -234.92,0 -425.15,-190.23 -425.15,-425.15 0,-234.91 190.23,-425.16 425.15,-425.16 234.63,0 425.16,190.25 425.16,425.16z"/>
   <path class="fil0" d="M4663.18 5286.14l-3556.33 0 -193.32 -3104.2 -720.2 0c-106.78,0 -193.33,-86.27 -193.33,-193.32 0,-106.51 86.55,-193.33 193.33,-193.33l1083.24 0 193.34 3104.2 3192.99 0c106.77,0 193.05,86.54 193.05,193.33 0,106.77 -86.27,193.32 -193.05,193.32l0.28 0z"/>
   <path class="fil1" d="M1596.91 1757.64c-182.64,-294.49 -561.15,-177.31 -906.5,-320.06 -46.92,406.32 299.55,945.84 749.99,1000.64l156.52 -680.58z"/>
   <path class="fil2" d="M1600.57 1762.13c-182.65,-294.49 -561.15,-177.31 -906.5,-320.06 -36.82,318.38 498.49,1029.59 902.28,834.85 121.96,-59.01 -107.89,-528 4.22,-514.79l0 0z"/>
   <path class="fil2" d="M1963.06 1872.02c125.89,-347.6 -7.31,-579.71 -302.36,-739.58 7.58,343.38 -190.8,488.38 21.35,841.87l281.01 -102.29z"/>
   <path class="fil1" d="M1963.06 1872.02c125.88,-347.6 -7.32,-579.71 -302.36,-739.58 289.42,260.49 272.28,399.02 244.47,540.93l57.89 198.94 0 -0.28z"/>
   <path class="fil3" d="M1792.77 1576.41c297.58,-19.39 554.41,206.25 573.79,503.82 19.39,297.58 -206.25,554.41 -503.83,573.8 -297.58,19.39 -554.41,-206.26 -573.8,-503.83 -19.39,-297.58 206.26,-554.41 503.84,-573.79z"/>
   <path class="fil4" d="M2328.36 1912.47c93.86,230.42 16.59,498.77 -192.49,646.3 -126.17,89.07 -335.22,141.34 -540.36,43.83 451.85,122.52 828.1,-211.87 732.84,-690.41l0 0.28z"/>
   <path class="fil1" d="M4528.29 1924.83c-10.68,-346.46 369.79,-458.03 578.86,-767.4 263.57,312.76 272.57,953.71 -72.5,1248.2l-506.36 -480.79z"/>
   <path class="fil2" d="M4527.73 1930.46c-10.68,-346.47 369.8,-458.03 578.86,-767.41 206.54,245.03 153.43,1133.54 -291.1,1194.24 -134.05,18.27 -201.77,-499.88 -287.75,-426.83z"/>
   <path class="fil2" d="M4286.08 2222.42c-297.01,-220.31 -314.15,-487.25 -156.52,-783.71 183.21,290.55 428.81,301.8 447.35,713.46l-290.84 69.97 0.01 0.28z"/>
   <path class="fil1" d="M4286.08 2222.4c-297.01,-220.3 -314.15,-487.25 -156.52,-783.43 -97.23,377.1 -6.46,483.32 94.98,585.88l61.54 197.82 0 -0.28z"/>
   <path class="fil3" d="M4264.72 1881.84c-258.8,148.37 -348.16,478.26 -200.07,737.06 148.37,258.8 478.26,348.17 737.06,200.07 258.8,-148.36 348.16,-478.26 200.08,-737.06 -148.38,-258.8 -478.27,-348.16 -737.07,-200.07z"/>
   <path class="fil4" d="M4003.95 2457.89c49.17,243.91 261.61,424.87 517.6,432.46 154.26,4.49 357.72,-67.15 474.61,-261.9 -308.81,351.82 -807.31,280.73 -992.21,-170.84l0 0.28z"/>
   <path class="fil1" d="M2428.12 1587.64c12.36,-409.41 -437.23,-541.21 -684.23,-907.06 -311.35,369.51 -322.31,1127.36 85.7,1475.24l598.54 -568.18z"/>
   <path class="fil2" d="M2428.68 1594.4c12.36,-409.43 -437.23,-541.21 -684.23,-907.07 -244.19,289.72 -181.24,1339.81 344.23,1411.46 158.48,21.64 238.29,-590.93 340.01,-504.39z"/>
   <path class="fil2" d="M2714.45 1939.46c350.97,-260.2 371.2,-576.05 184.9,-926.17 -216.65,343.38 -506.65,356.58 -528.57,843.27l343.67 82.9z"/>
   <path class="fil1" d="M2714.45 1939.46c350.97,-260.2 371.2,-576.05 184.9,-926.17 114.93,445.66 7.86,570.98 -112.4,692.38l-72.78 233.79 0.28 0z"/>
   <path class="fil3" d="M2739.46 1537.07c305.73,175.34 411.66,565.37 236.32,871.1 -175.35,305.72 -565.37,411.67 -871.1,236.31 -305.72,-175.34 -411.67,-565.36 -236.32,-871.09 175.35,-305.73 565.37,-411.66 871.1,-236.32z"/>
   <path class="fil4" d="M3047.72 2217.66c-58.17,288.03 -309.39,502.15 -611.73,511.14 -182.38,5.34 -422.64,-79.53 -560.88,-309.38 365.02,415.59 953.99,331.85 1172.61,-201.76z"/>
   <path class="fil1" d="M3180.63 2547.23c122.79,390.6 590.95,367.26 944.72,631.42 172.53,-451.57 -66.6,-1170.65 -566.5,-1365.1l-378.22 733.69z"/>
   <path class="fil2" d="M3177.81 2541.05c122.81,390.58 590.95,367.26 944.44,631.4 135.16,-353.78 -269.76,-1324.91 -789.32,-1219.53 -156.8,31.76 -30.64,636.46 -155.12,588.13z"/>
   <path class="fil2" d="M2794.54 2309.23c-245.88,361.37 -161.01,665.98 130.09,935.44 91.61,-395.36 361.09,-503.54 221.72,-970.29l-351.81 34.85z"/>
   <path class="fil1" d="M2794.54 2309.25c-245.88,361.37 -161.01,665.96 130.09,935.44 -255.14,-382.99 -195.29,-536.71 -121.66,-690.69l-8.15 -244.75 -0.28 0z"/>
   <path class="fil3" d="M2903.29 2697.58c-346.47,-64.91 -574.65,-398.45 -509.74,-744.65 64.92,-346.46 398.47,-574.63 744.65,-509.73 346.47,64.91 574.64,398.45 509.74,744.65 -64.91,346.47 -398.46,574.64 -744.65,509.73z"/>
   <path class="fil5" d="M2388.21 2156.38c-39.9,-291.11 127,-576.05 409.41,-683.95 170.56,-65.19 425.16,-64.07 631.68,107.62 -481.63,-272.29 -1010.18,0.56 -1041.1,576.33z"/>
   <path class="fil1" d="M3931.17 1337c114.65,-393.12 582.79,-379.62 930.96,-651.35 182.08,447.63 -41.59,1171.76 -536.99,1376.89l-393.68 -725.26 -0.29 -0.28z"/>
   <path class="fil2" d="M3928.65 1343.45c114.65,-393.11 582.79,-379.62 930.95,-651.35 142.75,350.97 -241.38,1330.24 -763.2,1236.12 -157.65,-28.39 -44.12,-635.62 -167.76,-584.77l0 0z"/>
   <path class="fil2" d="M3550.42 1583.42c-253.47,-356.02 -175.06,-662.31 110.15,-937.97 100.03,393.39 371.77,495.67 242.22,965.51l-352.37 -27.54 0.01 0z"/>
   <path class="fil1" d="M3550.42 1583.42c-253.47,-356.02 -175.06,-662.31 110.15,-937.97 -247,388.34 -183.77,540.63 -107.06,693.21l-3.09 244.75z"/>
   <path class="fil6" d="M3650.74 1192.85c-345.08,72.22 -565.94,410.54 -493.71,755.61 72.22,345.07 410.54,565.93 755.61,493.71 345.06,-72.22 565.92,-410.54 493.72,-755.6 -72.23,-345.08 -410.54,-565.94 -755.61,-493.72l0 0z"/>
   <path class="fil5" d="M3147.47 1745.01c-33.72,291.96 139.09,572.96 424.03,674.97 171.97,61.54 426.56,54.8 629.15,-121.12 -475.72,282.69 -1009.9,21.09 -1053.17,-554.13l0 0.28z"/>
   <path class="fil1" d="M2869.84 877.27c-4.77,-409.41 -459.71,-522.09 -722.16,-877.27 -295.61,382.43 -274.25,1140.01 148.09,1470.47l573.8 -593.2 0.27 0z"/>
   <path class="fil2" d="M2870.4 884.01c-4.78,-409.41 -459.72,-522.09 -722.17,-877.27 -231.54,299.82 -124.2,1346.26 403.8,1395.72 159.33,14.89 213,-600.5 318.37,-518.45l0 0z"/>
   <path class="fil2" d="M3170.52 1216.45c339.73,-274.82 346.47,-591.22 145.55,-933.2 -201.75,352.1 -491.19,377.94 -492.31,864.92l346.75 68 0 0.28z"/>
   <path class="fil1" d="M3170.52 1216.45c339.73,-274.82 346.47,-591.22 145.56,-933.2 133.75,440.33 32.03,570.15 -82.9,696.6l-62.67 236.6z"/>
   <path class="fil3" d="M3178.65 813.49c313.04,162.13 435.27,547.39 273.13,860.13 -162.14,313.04 -547.39,435.27 -860.14,273.13 -313.02,-162.13 -435.26,-547.39 -273.13,-860.13 162.13,-313.03 547.39,-435.27 860.13,-273.13l0 0z"/>
   <path class="fil7" d="M3515.58 1480.3c-45.81,290.27 -287.75,514.79 -589.53,536.71 -182.09,13.2 -425.73,-61.54 -573.53,-285.22 382.44,399.86 967.2,291.12 1163.06,-251.21l0 -0.28z"/>
   <path class="fil1" d="M5734.92 5387.03c149.77,-211.31 426.84,-106.49 690.98,-197.26 16.3,305.17 -266.95,691.82 -605.56,712.05l-85.42 -515.07 0 0.28z"/>
   <path class="fil2" d="M5732.1 5390.4c149.77,-211.31 427.12,-106.49 690.98,-197.26 12.92,239.41 -419.25,745.5 -711.76,581.4 -88.24,-49.46 104.8,-389.19 20.5,-384.42l0.28 0.28z"/>
   <path class="fil2" d="M5456.45 5455.6c-78.11,-265.27 32.04,-432.18 259.65,-538.12 -21.36,255.99 119.99,373.16 -54.51,627.19l-205.13 -89.07z"/>
   <path class="fil1" d="M5456.45 5455.6c-78.11,-265.27 32.04,-432.18 259.65,-538.12 -227.9,181.24 -221.71,285.22 -207.1,392.27l-52.27 145.85 -0.28 0z"/>
   <path class="fil3" d="M5596.94 5242.87c-221.14,-28.1 -423.18,128.42 -451.28,349.56 -28.09,221.16 128.42,423.19 349.57,451.29 221.14,28.1 423.18,-128.42 451.27,-349.56 28.1,-221.16 -128.41,-423.18 -349.56,-451.29z"/>
   <path class="fil5" d="M5181.89 5468.8c-80.35,167.48 -35.11,371.48 114.09,491.19 89.92,72.22 243.62,120.82 400.99,57.6 -342.82,70.82 -608.09,-196.13 -515.08,-548.78z"/>
   <path class="fil0" d="M1558.98 4217.24l3044.62 0 143.32 -1494.07 -3402.62 0 214.97 1494.07 -0.28 0zm3220.24 386.38l-3387.72 0c-95.81,0 -177.3,-70.53 -191.07,-165.8l-270.33 -1880.44c-8.15,-55.64 8.43,-111.56 45.25,-154 36.53,-42.43 89.92,-66.88 146.12,-66.88l3838.16 0c54.52,0 106.51,23.05 143.04,63.23 36.53,40.47 54.23,94.42 49.16,148.36l-180.11 1880.73c-9.56,98.92 -93.01,174.79 -192.2,174.79l-0.3 0z"/>
   <path class="fil0" d="M1391.51 4410.57l3387.72 0 180.12 -1880.73 -3837.9 0 270.05 1880.73z"/>
  </g>
 </g>
</svg>
