<?xml version="1.0" encoding="UTF-8"?>
<!DOCTYPE svg PUBLIC "-//W3C//DTD SVG 1.0//EN" "http://www.w3.org/TR/2001/REC-SVG-20010904/DTD/svg10.dtd">
<!-- Creator: CorelDRAW 2019 (64-Bit) -->
<svg xmlns="http://www.w3.org/2000/svg" xml:space="preserve" width="59.2668mm" height="37.9508mm" version="1.0" style="shape-rendering:geometricPrecision; text-rendering:geometricPrecision; image-rendering:optimizeQuality; fill-rule:evenodd; clip-rule:evenodd"
viewBox="0 0 1247.33 798.71"
 xmlns:xlink="http://www.w3.org/1999/xlink"
 xmlns:xodm="http://www.corel.com/coreldraw/odm/2003">
 <defs>
  <style type="text/css">
   <![CDATA[
    .fil4 {fill:#0748BF}
    .fil3 {fill:#1575CE}
    .fil0 {fill:#18B15E}
    .fil1 {fill:#1BCB6B}
    .fil2 {fill:#0459F6;fill-rule:nonzero}
   ]]>
  </style>
 </defs>
 <g id="Layer_x0020_1">
  <metadata id="CorelCorpID_0Corel-Layer"/>
  <g id="_2054325412688">
   <path class="fil0" d="M319.66 413.69c-15.83,-137.52 -172.64,-159.65 -273.14,-269.92 -86.12,138.81 -52.72,392.77 100.72,489.23l172.4 -219.31 0.01 0z"/>
   <path class="fil1" d="M320.13 415.98c-15.83,-137.52 -172.64,-159.65 -273.14,-269.92 -67.5,108.81 4.86,456.94 184.04,455.24 54.11,-0.5 50.84,-209.23 89.08,-185.32l0.01 0z"/>
   <path class="fil1" d="M432.54 517.39c104.68,-104.19 96,-210.74 16.64,-318.77 -55.7,125.41 -152.03,144.05 -135.61,307.88l118.97 10.89z"/>
   <path class="fil0" d="M432.54 517.39c104.7,-104.19 96.01,-210.74 16.64,-318.77 60.22,143.4 30.51,190.62 -3.73,237.05l-12.89 81.73 -0.01 0z"/>
   <path class="fil2" d="M419.89 382.28c110.84,43.67 165.27,168.93 121.59,279.76 -43.67,110.84 -168.93,165.27 -279.76,121.59 -110.85,-43.67 -165.27,-168.93 -121.59,-279.76 43.67,-110.84 168.93,-165.27 279.76,-121.59z"/>
   <path class="fil0" d="M1063.25 622.61c39.83,-56.26 113.6,-28.38 183.9,-52.45 4.36,81.24 -71.04,184.13 -161.14,189.5l-22.76 -137.04 0 -0.01z"/>
   <path class="fil1" d="M1062.48 623.48c39.85,-56.26 113.62,-28.36 183.9,-52.45 3.42,63.68 -111.55,198.36 -189.38,154.71 -23.5,-13.17 27.9,-103.54 5.48,-102.25l0 -0.01z"/>
   <path class="fil1" d="M989.12 640.85c-20.75,-70.56 8.56,-115.01 69.07,-143.18 -5.72,68.09 31.89,99.3 -14.52,166.9l-54.56 -23.74 0.01 0.01z"/>
   <path class="fil0" d="M989.12 640.85c-20.75,-70.56 8.55,-115.01 69.08,-143.18 -60.63,48.18 -58.97,75.92 -55.13,104.4l-13.95 38.77z"/>
   <path class="fil2" d="M1026.56 584.23c-58.86,-7.47 -112.62,34.18 -120.1,93.04 -7.48,58.84 34.18,112.61 93.04,120.1 58.85,7.47 112.61,-34.19 120.1,-93.04 7.48,-58.86 -34.19,-112.62 -93.04,-120.1z"/>
   <path class="fil3" d="M916.12 644.41c-21.42,44.59 -9.36,98.82 30.34,130.71 23.95,19.24 64.83,32.19 106.74,15.34 -91.2,18.81 -161.81,-52.2 -137.06,-146.05l-0.01 0z"/>
   <path class="fil0" d="M683.9 487.77c42.5,-110.27 176.85,-95.02 283.51,-164.67 41.48,133.15 -40.46,335.91 -187.92,382.81l-95.57 -218.14 -0.01 0z"/>
   <path class="fil1" d="M683 489.55c42.5,-110.27 176.85,-95.01 283.51,-164.66 32.52,104.38 -101.77,376.63 -249.52,336.88 -44.61,-11.99 2.74,-183.81 -33.99,-172.23z"/>
   <path class="fil2" d="M723.05 775.25c88.84,-49.51 120.71,-161.68 71.18,-250.53 -49.53,-88.84 -161.69,-120.71 -250.53,-71.18 -88.84,49.51 -120.71,161.68 -71.18,250.53 49.51,88.84 161.68,120.71 250.53,71.18z"/>
   <path class="fil1" d="M572.89 662.95c-84.39,-142.55 -45,-255.81 71.53,-350.81 25.23,151.82 124.6,199.13 60.72,372.43l-132.23 -21.62 -0.01 0z"/>
   <path class="fil0" d="M572.89 662.95c-84.39,-142.55 -45.02,-255.81 71.53,-350.81 -105.68,138.78 -86.69,198.4 -62.57,258.45l-8.96 92.36z"/>
   <path class="fil0" d="M545.9 366.99c19.49,-154.02 -145.42,-220.03 -225.43,-366.99 -130.88,128.2 -162.33,413.76 -20.95,559.85l246.38 -192.85 0 -0.01z"/>
   <path class="fil1" d="M545.82 369.61c19.49,-154.02 -145.42,-220.03 -225.43,-366.99 -102.6,100.49 -116.75,499.05 78.89,545.07 59.08,13.9 111.28,-214.35 146.55,-178.07l0 -0.01z"/>
   <path class="fil1" d="M641.18 510.09c141.88,-85.54 160.86,-203.93 103.28,-342.81 -94.17,121.73 -204.1,116.3 -229.96,299.18l126.68 43.64 0 -0.01z"/>
   <path class="fil0" d="M641.16 510.09c141.87,-85.52 160.87,-203.92 103.28,-342.81 27.29,172.29 -17.7,215.79 -67.39,257.23l-35.89 85.58 0 0z"/>
   <path class="fil2" d="M665.21 359.14c109.06,77.2 134.91,228.16 57.71,337.24 -77.18,109.06 -228.17,134.92 -337.23,57.72 -109.06,-77.18 -134.92,-228.16 -57.72,-337.23 77.18,-109.06 228.16,-134.92 337.24,-57.73l-0 0z"/>
   <path class="fil4" d="M756.94 627.12c-32.31,106.63 -134.86,178.29 -249.32,170.79 -69.03,-4.54 -156.62,-45.28 -200.52,-137 122.78,170.05 348.05,159.66 449.83,-33.79l0.01 0z"/>
  </g>
 </g>
</svg>
