<?xml version="1.0" encoding="UTF-8"?>
<!DOCTYPE svg PUBLIC "-//W3C//DTD SVG 1.0//EN" "http://www.w3.org/TR/2001/REC-SVG-20010904/DTD/svg10.dtd">
<!-- Creator: CorelDRAW 2019 (64-Bit) -->
<svg xmlns="http://www.w3.org/2000/svg" xml:space="preserve" width="84.6667mm" height="81.2727mm" version="1.0" style="shape-rendering:geometricPrecision; text-rendering:geometricPrecision; image-rendering:optimizeQuality; fill-rule:evenodd; clip-rule:evenodd"
viewBox="0 0 2797.04 2684.91"
 xmlns:xlink="http://www.w3.org/1999/xlink"
 xmlns:xodm="http://www.corel.com/coreldraw/odm/2003">
 <defs>
  <style type="text/css">
   <![CDATA[
    .fil5 {fill:#0748BF}
    .fil4 {fill:#1575CE}
    .fil1 {fill:#18B15E}
    .fil2 {fill:#1BCB6B}
    .fil6 {fill:#D2D3D5}
    .fil3 {fill:#0459F6;fill-rule:nonzero}
    .fil0 {fill:#D2D3D5;fill-rule:nonzero}
   ]]>
  </style>
 </defs>
 <g id="Layer_x0020_1">
  <metadata id="CorelCorpID_0Corel-Layer"/>
  <g id="_2054324476304">
   <path class="fil0" d="M2236.35 2507.64l-1618.48 0 -140.62 -865.09 1899.71 0 -140.62 865.09zm-1770 -1337.83l260.79 0 -68.29 97.28 -273.66 0 81.26 -97.28 -0.1 0zm1444.36 0l68.29 97.28 -1103.68 0 68.1 -97.28 967.29 0zm482.18 0l70.45 97.28 -267.96 0 -68.19 -97.28 265.7 0zm318.27 146.7c-2.85,-9.83 -6.98,-19.35 -13.36,-28l-187.98 -259.32c-16.7,-23 -43.43,-36.55 -71.73,-36.55l-435.2 0 -216.57 0 -718.4 0 -216.47 0 -426.66 0c-26.33,0 -51.19,11.69 -68.09,31.93l-203.4 243.98c-17.88,21.43 -23.49,48.74 -18.38,74.19 -0.59,4.22 -1.37,8.45 -1.37,13.07l0 198.19c0,49.04 39.7,88.63 88.63,88.63l75.56 0 157.32 967.88c6.97,42.84 44.12,74.38 87.45,74.38l1769.22 0c43.43,0 80.47,-31.55 87.45,-74.38l157.32 -967.88 75.56 0c49.04,0 88.64,-39.6 88.64,-88.63l0 -198.19c0,-14.15 -3.64,-27.32 -9.53,-39.21l0 -0.1z"/>
   <path class="fil1" d="M524.72 898.02c-105.14,-169.7 -323.38,-102.19 -522.26,-184.34 -27.02,234.07 172.55,544.86 432.06,576.41l90.2 -392.07z"/>
   <path class="fil2" d="M526.78 900.67c-105.14,-169.7 -323.38,-102.19 -522.27,-184.34 -21.23,183.45 287.12,593.21 519.91,480.9 70.26,-33.9 -62.2,-304.22 2.36,-296.56z"/>
   <path class="fil2" d="M735.69 963.85c72.61,-200.26 -4.23,-333.99 -174.22,-426.16 4.42,197.8 -109.86,281.32 12.29,485.02l161.94 -58.86z"/>
   <path class="fil1" d="M735.69 963.85c72.61,-200.26 -4.23,-333.99 -174.13,-426.16 166.66,150.05 156.93,229.93 140.81,311.59l33.41 114.57 -0.09 0z"/>
   <path class="fil3" d="M637.53 793.56c171.46,-11.1 319.45,118.9 330.55,290.27 11.11,171.47 -118.9,319.45 -290.26,330.56 -171.47,11.1 -319.45,-118.9 -330.56,-290.27 -11.1,-171.47 118.9,-319.45 290.27,-330.56z"/>
   <path class="fil4" d="M946.06 987.14c53.95,132.75 9.53,287.32 -110.93,372.42 -72.62,51.29 -193.18,81.46 -311.2,25.35 260.3,70.55 476.97,-122.04 422.24,-397.77l-0.1 0z"/>
   <path class="fil1" d="M2208.44 834.64c76.74,-226.79 350.01,-207.13 559.99,-357.09 95.12,266 -53.65,683.32 -348.24,790.62l-211.75 -433.53z"/>
   <path class="fil2" d="M2206.88 838.28c76.74,-226.79 350.01,-207.13 559.99,-357.08 74.58,208.51 -174.42,770.87 -476.77,702.86 -91.29,-20.54 -9.92,-372.32 -83.23,-345.78l0 0z"/>
   <path class="fil2" d="M1979.89 968.87c-139.14,-214.21 -85.69,-391.28 87.75,-545.06 48.55,232.29 204.68,298.82 117.33,569.92l-205.17 -24.86 0.1 0z"/>
   <path class="fil1" d="M1979.89 968.87c-139.14,-214.21 -85.69,-391.28 87.75,-545.06 -153.98,220.6 -120.86,311.19 -79.89,402.19l-7.86 142.87z"/>
   <path class="fil3" d="M2048.28 743.36c-203.31,33.61 -340.87,225.51 -307.36,428.82 33.6,203.3 225.51,340.87 428.81,307.37 203.31,-33.61 340.87,-225.61 307.37,-428.82 -33.6,-203.3 -225.51,-340.87 -428.82,-307.37z"/>
   <path class="fil4" d="M1740.42 1053.18c-27.02,169.7 66.92,338.22 230.72,404.94 98.85,40.19 247.72,42.75 370.45,-54.93 -284.86,153.09 -590.36,-13.07 -601.17,-350.01l0 0z"/>
   <path class="fil1" d="M1719.1 1450.15c79.1,211.47 -132.26,360.03 -196.43,594.78 -228.07,-137.66 -368.09,-531.4 -216.86,-785.41l413.19 190.62 0.1 0z"/>
   <path class="fil2" d="M1718.11 1446.42c79.1,211.46 -132.26,360.03 -196.42,594.78 -178.84,-107.89 -332.13,-667.3 -70.55,-797.89 79,-39.41 229.15,266.19 266.98,203.11z"/>
   <path class="fil2" d="M1806.06 1215.7c229.44,73.6 295.87,234.85 260.79,450.63 -174.02,-140.8 -327.71,-96.39 -425.48,-346.56l164.69 -104.16 0 0.09z"/>
   <path class="fil1" d="M1806.05 1215.7c229.45,73.6 295.87,234.85 260.79,450.63 -18.97,-253.02 -97.18,-299.5 -181.39,-341.55l-79.4 -109.17 0 0.09z"/>
   <path class="fil3" d="M1890.57 1421.35c128.52,-145.72 114.67,-368.09 -31.05,-496.61 -145.72,-128.53 -368.09,-114.67 -496.62,31.05 -128.52,145.72 -114.67,368.09 31.05,496.62 145.72,128.53 368.09,114.67 496.62,-31.05z"/>
   <path class="fil4" d="M1930.85 1011.42c-81.36,-140.13 -250.47,-207.34 -409.95,-158.4 -96.2,29.48 -206.55,116.44 -237.99,260.98 116.93,-281.71 439.23,-342.35 647.94,-102.58z"/>
   <path class="fil1" d="M1166.57 756.22c79.1,-211.46 -132.26,-360.03 -196.43,-594.78 -228.07,137.66 -368.09,531.4 -216.86,785.41l413.19 -190.63 0.1 0z"/>
   <path class="fil2" d="M1165.58 759.87c79.1,-211.46 -132.26,-360.03 -196.42,-594.78 -178.84,107.9 -332.13,667.3 -70.55,797.89 79,39.4 229.15,-266.19 266.98,-203.11z"/>
   <path class="fil2" d="M1253.63 990.58c229.44,-73.6 295.87,-234.85 260.79,-450.63 -174.02,140.81 -327.71,96.4 -425.48,346.57l164.69 104.16 0 -0.1z"/>
   <path class="fil1" d="M1253.53 990.58c229.44,-73.6 295.87,-234.85 260.79,-450.63 -18.96,253.02 -97.18,299.5 -181.39,341.56l-79.4 109.17 0 -0.1z"/>
   <path class="fil3" d="M1338.13 784.92c128.53,145.72 114.67,368.09 -31.05,496.62 -145.72,128.53 -368.09,114.67 -496.62,-31.05 -128.53,-145.72 -114.67,-368.09 31.05,-496.61 145.72,-128.53 368.09,-114.67 496.61,31.05z"/>
   <path class="fil5" d="M1378.33 1194.97c-81.36,140.12 -250.47,207.33 -409.96,158.4 -96.2,-29.48 -206.55,-116.44 -237.99,-260.98 116.93,281.72 439.23,342.35 647.95,102.59z"/>
   <path class="fil1" d="M1493.29 628.78c-83.62,-223.55 139.83,-380.57 207.63,-628.78 241.14,145.52 389.12,561.67 229.25,830.22l-436.78 -201.44 -0.1 0z"/>
   <path class="fil2" d="M1494.37 632.62c-83.62,-223.55 139.83,-380.57 207.63,-628.78 189.05,114.08 351.09,705.43 74.58,843.49 -83.52,41.66 -242.22,-281.43 -282.21,-214.7z"/>
   <path class="fil2" d="M1401.32 876.6c-242.51,-77.82 -312.77,-248.3 -275.73,-476.47 183.95,148.87 346.48,101.9 449.85,366.32l-174.12 110.06 0 0.09z"/>
   <path class="fil1" d="M1401.32 876.59c-242.51,-77.83 -312.77,-248.21 -275.73,-476.37 20.05,267.47 102.78,316.6 191.71,361.01l83.92 115.36 0.1 0z"/>
   <path class="fil3" d="M1312 659.24c-135.9,154.07 -121.16,389.12 32.82,525.02 154.07,135.89 389.12,121.16 525.01,-32.82 135.9,-154.08 121.25,-389.12 -32.82,-525.02 -154.08,-135.9 -389.12,-121.16 -525.02,32.82z"/>
   <path class="fil5" d="M1269.55 1092.58c85.98,148.18 264.82,219.12 433.43,167.44 101.7,-31.15 218.35,-123.12 251.65,-275.82 -123.61,297.83 -464.29,361.9 -684.99,108.38l-0.1 0z"/>
   <path class="fil6" d="M342.05 1267.09l193.97 1324.58 1770.1 17.39 208.51 -1341.97 -2172.58 0z"/>
  </g>
 </g>
</svg>
